<?xml version="1.0" encoding="UTF-8"?>
<svg version="1.1" xmlns="http://www.w3.org/2000/svg" width="447" height="447">
<path d="M0 0 C147.51 0 295.02 0 447 0 C447 147.51 447 295.02 447 447 C299.49 447 151.98 447 0 447 C0 299.49 0 151.98 0 0 Z " fill="#0C64C4" transform="translate(0,0)"/>
<path d="M0 0 C0.7940625 0.19464844 1.588125 0.38929688 2.40625 0.58984375 C16.66677931 4.30902501 27.49500283 13.52225409 35 26 C44.08431559 42.34684431 43.41029507 59.37968324 43.29296875 77.5234375 C43.28736444 80.08175405 43.28309829 82.64007384 43.28010559 85.19839478 C43.26988155 91.20811149 43.24631816 97.21762804 43.21605712 103.227265 C43.17899859 110.75304021 43.16276143 118.27884358 43.14648438 125.8046875 C43.11741527 139.20325464 43.057295 152.60145792 43 166 C26.17 166 9.34 166 -8 166 C-8.04898438 159.44898438 -8.09796875 152.89796875 -8.1484375 146.1484375 C-8.18386374 141.9739438 -8.21984651 137.79946949 -8.2578125 133.625 C-8.3178916 127.01337606 -8.37601905 120.40177894 -8.421875 113.79003906 C-8.45901534 108.45366798 -8.50544938 103.11744818 -8.55806351 97.78120804 C-8.57645595 95.75531316 -8.59161842 93.72938605 -8.60334396 91.70344162 C-7.96449574 69.02008921 -7.96449574 69.02008921 -17 49 C-23.5536284 43.51635175 -30.90652834 43.39099405 -39.1953125 43.59375 C-46.38451582 44.36138567 -51.38835738 48.08886217 -56.375 53.125 C-64.70466811 64.42787311 -63.60405788 78.05249285 -63.609375 91.390625 C-63.62437693 93.54825062 -63.64110825 95.70586484 -63.65948486 97.86346436 C-63.70294446 103.50547856 -63.7231099 109.14733791 -63.73822021 114.78948975 C-63.76133144 121.57880094 -63.81373622 128.36794321 -63.86116028 135.15711975 C-63.92973137 145.43812363 -63.96137732 155.71864374 -64 166 C-81.16 166 -98.32 166 -116 166 C-116 111.88 -116 57.76 -116 2 C-99.5 2 -83 2 -66 2 C-65.505 12.395 -65.505 12.395 -65 23 C-63.72125 21.515 -62.4425 20.03 -61.125 18.5 C-54.15277891 10.78465817 -46.90604749 4.45792889 -37 1 C-35.80697266 0.55333984 -35.80697266 0.55333984 -34.58984375 0.09765625 C-23.72626937 -3.45799328 -10.90091357 -3.33316396 0 0 Z " fill="#FCFDFE" transform="translate(301,180)"/>
<path d="M0 0 C16.83 0 33.66 0 51 0 C51 53.79 51 107.58 51 163 C34.17 163 17.34 163 0 163 C0 109.21 0 55.42 0 0 Z " fill="#FEFEFE" transform="translate(103,183)"/>
<path d="M0 0 C5.16101545 4.23565779 8.64382623 8.63803991 10.42578125 15.171875 C11.30771809 26.63705392 11.22688477 35.26500901 3.671875 44.375 C-1.54002759 49.71949503 -7.95087882 52.94458156 -15.40234375 53.7578125 C-25.53132506 53.88255365 -32.59538446 52.26969997 -40.19921875 45.359375 C-47.09796041 37.87454555 -49.11145196 29.61742375 -48.77734375 19.5703125 C-48.05105011 14.52382391 -46.10494486 10.64673511 -43.32421875 6.421875 C-42.94007812 5.83664063 -42.5559375 5.25140625 -42.16015625 4.6484375 C-32.26175577 -8.61676586 -12.96607235 -8.80385417 0 0 Z " fill="#FCFDFE" transform="translate(147.32421875,106.578125)"/>
</svg>
