<?xml version="1.0" encoding="UTF-8"?>
<svg version="1.1" xmlns="http://www.w3.org/2000/svg" width="1200" height="1200">
<path d="M0 0 C396 0 792 0 1200 0 C1200 396 1200 792 1200 1200 C804 1200 408 1200 0 1200 C0 804 0 408 0 0 Z " fill="#000000" transform="translate(0,0)"/>
<path d="M0 0 C23.19165415 -0.49175661 46.38244267 -0.8614489 69.57826233 -1.08805561 C80.35017724 -1.19609916 91.11884344 -1.34322538 101.88867188 -1.58422852 C111.28202145 -1.79432813 120.67301819 -1.92919857 130.06865215 -1.97585839 C135.03975143 -2.00311828 140.004124 -2.06656775 144.97305298 -2.22033119 C177.57738485 -3.19045208 177.57738485 -3.19045208 185.83935547 4.48086548 C189.47173471 8.74563072 192.1468053 13.27636191 194.59542847 18.29866982 C196.89930022 22.72957146 199.95694915 26.55862694 203 30.5 C204.14951644 32.05979236 205.29578351 33.62198931 206.4375 35.1875 C210.23213359 40.33735987 214.11208567 45.42038779 218 50.5 C223.65353395 57.88641792 229.21470194 65.33194466 234.7109375 72.8359375 C239.07277032 78.77671433 243.52054548 84.6475326 248 90.5 C253.65353395 97.88641792 259.21470194 105.33194466 264.7109375 112.8359375 C269.07277032 118.77671433 273.52054548 124.6475326 278 130.5 C283.65353395 137.88641792 289.21470194 145.33194466 294.7109375 152.8359375 C299.07277032 158.77671433 303.52054548 164.6475326 308 170.5 C313.64369539 177.87356371 319.20067844 185.30229403 324.68017578 192.79858398 C327.8817749 197.16577819 331.12952655 201.4918189 334.4296875 205.78515625 C335.16960937 206.74808594 335.90953125 207.71101562 336.671875 208.703125 C338.11810012 210.58014058 339.56849302 212.45395376 341.0234375 214.32421875 C341.673125 215.16726563 342.3228125 216.0103125 342.9921875 216.87890625 C343.57339355 217.6272876 344.15459961 218.37566895 344.75341797 219.14672852 C346 221 346 221 346 223 C351.38573439 218.44729194 356.35422967 213.68995124 361.125 208.5 C361.76751709 207.807854 362.41003418 207.11570801 363.07202148 206.40258789 C364.40127333 204.97049761 365.72899373 203.53698431 367.05517578 202.10205078 C369.47273823 199.48904391 371.90250126 196.88761351 374.33349609 194.28710938 C376.06867755 192.43089154 377.80217046 190.57311149 379.53515625 188.71484375 C383.02248827 184.97567618 386.51114496 181.23774647 390 177.5 C391.16667246 176.25000541 392.33333913 175.00000541 393.5 173.75 C400.5 166.25 400.5 166.25 402.25048828 164.37451172 C403.41557375 163.12618263 404.58061291 161.87781033 405.74560547 160.62939453 C408.68608369 157.47847112 411.62739654 154.32833434 414.5703125 151.1796875 C420.04307116 145.32282296 425.50761523 139.45915794 430.9375 133.5625 C436.65609455 127.35363077 442.4296835 121.19713204 448.20703125 115.04296875 C451.83228799 111.18077923 455.44911567 107.31079621 459.0625 103.4375 C459.63597168 102.82277832 460.20944336 102.20805664 460.80029297 101.57470703 C461.9556132 100.33614391 463.11088674 99.09753723 464.26611328 97.85888672 C467.17663651 94.73853697 470.08838287 91.61932898 473 88.5 C474.16667246 87.25000541 475.33333913 86.00000541 476.5 84.75 C525.5 32.25 525.5 32.25 527.25219727 30.37280273 C528.41174876 29.13032201 529.57109329 27.8876481 530.73022461 26.64477539 C533.75403217 23.40306642 536.7820118 20.16539734 539.81640625 16.93359375 C540.44353516 16.26457031 541.07066406 15.59554688 541.71679688 14.90625 C542.90816318 13.63545927 544.10078191 12.36584098 545.29492188 11.09765625 C546.10993164 10.22753906 546.10993164 10.22753906 546.94140625 9.33984375 C547.41263916 8.83831787 547.88387207 8.33679199 548.36938477 7.82006836 C550.20173925 5.88941901 550.20173925 5.88941901 551.90869141 2.82788086 C553.74814028 0.63044984 554.72584647 0.05581971 557.56999207 -0.52326965 C560.90223382 -0.6959628 564.18389937 -0.67368162 567.51953125 -0.5859375 C568.73323898 -0.57744781 569.94694672 -0.56895813 571.19743347 -0.56021118 C575.07002908 -0.52665227 578.94053482 -0.45135876 582.8125 -0.375 C585.43942304 -0.34490405 588.06637874 -0.31752762 590.69335938 -0.29296875 C597.12961805 -0.22685213 603.56465973 -0.12647462 610 0 C609.06432263 1.27011541 608.12546361 2.53788727 607.18530273 3.8046875 C606.66282455 4.51093262 606.14034637 5.21717773 605.60203552 5.94482422 C603.31486764 8.87892398 600.74382624 11.43048668 598.0625 14 C594.04350109 17.92994893 590.22109187 21.92438363 586.57421875 26.20703125 C584.41419977 28.66720175 582.08069726 30.92964924 579.74609375 33.22265625 C577.93522357 35.06593574 576.24678646 36.97822799 574.5625 38.9375 C571.52320349 42.46634763 568.28983153 45.73005027 564.97265625 48.99609375 C562.42662171 51.58246151 560.07978443 54.3153528 557.71484375 57.06640625 C555.4995262 59.56431556 553.1310183 61.88024989 550.75 64.21875 C548.91757513 66.08389674 547.20646865 68.01927746 545.5 70 C543.2544206 72.60647609 540.95448488 75.08934521 538.5 77.5 C536.06610268 79.89053167 533.78644441 82.35046262 531.5625 84.9375 C528.52320349 88.46634763 525.28983153 91.73005027 521.97265625 94.99609375 C519.42662171 97.58246151 517.07978443 100.3153528 514.71484375 103.06640625 C512.4995262 105.56431556 510.1310183 107.88024989 507.75 110.21875 C505.91757513 112.08389674 504.20646865 114.01927746 502.5 116 C500.2544206 118.60647609 497.95448488 121.08934521 495.5 123.5 C493.06610268 125.89053167 490.78644441 128.35046262 488.5625 130.9375 C485.52320349 134.46634763 482.28983153 137.73005027 478.97265625 140.99609375 C476.42662171 143.58246151 474.07978443 146.3153528 471.71484375 149.06640625 C469.49830603 151.56569138 467.12837719 153.88281884 464.74609375 156.22265625 C462.93522357 158.06593574 461.24678646 159.97822799 459.5625 161.9375 C456.52320349 165.46634763 453.28983153 168.73005027 449.97265625 171.99609375 C447.42662171 174.58246151 445.07978443 177.3153528 442.71484375 180.06640625 C440.4995262 182.56431556 438.1310183 184.88024989 435.75 187.21875 C433.91757513 189.08389674 432.20646865 191.01927746 430.5 193 C428.2544206 195.60647609 425.95448488 198.08934521 423.5 200.5 C421.06610268 202.89053167 418.78644441 205.35046262 416.5625 207.9375 C413.52320349 211.46634763 410.28983153 214.73005027 406.97265625 217.99609375 C404.42662171 220.58246151 402.07978443 223.3153528 399.71484375 226.06640625 C397.49830603 228.56569138 395.12837719 230.88281884 392.74609375 233.22265625 C390.93522357 235.06593574 389.24678646 236.97822799 387.5625 238.9375 C384.47652987 242.52502736 381.19605648 245.85021733 377.796875 249.140625 C376.90742187 250.06101562 376.90742187 250.06101562 376 251 C375.07960938 251.95132813 375.07960938 251.95132813 374.140625 252.921875 C373.76421875 253.60765625 373.3878125 254.2934375 373 255 C374.13507073 258.66767827 375.85791356 261.40342545 378.203125 264.4140625 C379.16798828 265.66413086 379.16798828 265.66413086 380.15234375 266.93945312 C380.84457031 267.82568359 381.53679687 268.71191406 382.25 269.625 C383.71483108 271.52244277 385.17834845 273.42090037 386.640625 275.3203125 C387.74374023 276.75165527 387.74374023 276.75165527 388.86914062 278.21191406 C391.96865234 282.26741633 394.98845447 286.37898363 398 290.5 C402.92484116 297.22554781 407.9334987 303.88054811 413 310.5 C418.65353395 317.88641792 424.21470194 325.33194466 429.7109375 332.8359375 C434.07277032 338.77671433 438.52054548 344.6475326 443 350.5 C448.65353395 357.88641792 454.21470194 365.33194466 459.7109375 372.8359375 C464.07277163 378.77671612 468.52062409 384.64747089 473 390.5 C478.67071014 397.91073386 484.2577197 405.37549319 489.77685547 412.8996582 C496.97134294 422.70242834 504.29045325 432.41164845 511.60107422 442.12792969 C517.36038712 449.78357916 523.08229868 457.46372005 528.75 465.1875 C534.42331945 472.91553646 540.21138909 480.55002645 546.03808594 488.1628418 C551.00622353 494.66539815 555.87562263 501.23429756 560.7109375 507.8359375 C565.07277032 513.77671433 569.52054548 519.6475326 574 525.5 C579.65353395 532.88641792 585.21470194 540.33194466 590.7109375 547.8359375 C595.07277301 553.77671798 599.5206987 559.64741166 604 565.5 C609.37060489 572.52028321 614.68990536 579.57469815 619.9375 586.6875 C620.53498047 587.49574219 621.13246094 588.30398438 621.74804688 589.13671875 C622.29396484 589.87921875 622.83988281 590.62171875 623.40234375 591.38671875 C623.88179443 592.03858154 624.36124512 592.69044434 624.85522461 593.36206055 C626 595 626 595 627 597 C602.82610313 597.37423988 578.65264206 597.65613856 554.47642899 597.82899475 C543.25006362 597.91139998 532.02550093 598.02367921 520.80029297 598.20703125 C511.01292435 598.36682108 501.22686133 598.46980247 491.43822455 598.50541592 C486.25730424 598.52622753 481.08011776 598.57489509 475.90039825 598.69168091 C471.01700709 598.800886 466.13885838 598.83367886 461.25436211 598.8097229 C459.4691731 598.81409959 457.68379613 598.84560429 455.89966774 598.9072876 C442.80535116 599.33752365 442.80535116 599.33752365 438.10849285 595.4239254 C434.56349031 591.59476114 431.77487285 587.36228988 429.12908697 582.87914276 C427.66517565 580.44275085 425.99033801 578.19999132 424.2578125 575.94921875 C423.21282456 574.52917326 422.16854365 573.10860718 421.125 571.6875 C419.94012359 570.07680863 418.75522717 568.46613198 417.5703125 566.85546875 C416.98024414 566.05286621 416.39017578 565.25026367 415.78222656 564.42333984 C412.85769254 560.44677482 409.92864567 556.47353729 407 552.5 C405.83331112 550.91668304 404.66664447 549.33334969 403.5 547.75 C402.9225 546.96625 402.345 546.1825 401.75 545.375 C368.5 500.25 368.5 500.25 366.74951172 497.87426758 C365.58456151 496.29331017 364.41952266 494.71241808 363.25439453 493.1315918 C360.3107302 489.13744172 357.36868654 485.1421157 354.4296875 481.14453125 C348.98363105 473.73980537 343.52542234 466.34575634 338 459 C331.86971479 450.8501105 325.82289741 442.6397739 319.78222656 434.42333984 C316.85769254 430.44677482 313.92864567 426.47353729 311 422.5 C309.83331112 420.91668304 308.66664447 419.33334969 307.5 417.75 C306.63375 416.574375 306.63375 416.574375 305.75 415.375 C300.5 408.25000001 300.5 408.25000001 298.74804688 405.87231445 C297.58793509 404.29790018 296.42777924 402.72351837 295.26757812 401.14916992 C292.25024922 397.05464781 289.23381688 392.95946939 286.21875 388.86328125 C285.59613281 388.01765625 284.97351563 387.17203125 284.33203125 386.30078125 C283.15205609 384.69812842 281.97234764 383.09527917 280.79296875 381.4921875 C277.22123956 376.6417963 273.62236782 371.81269094 270 367 C267.00397785 368.33395673 265.03398391 369.75784003 262.8203125 372.16796875 C262.22855225 372.80613525 261.63679199 373.44430176 261.02709961 374.10180664 C260.0855603 375.13422485 260.0855603 375.13422485 259.125 376.1875 C258.46443604 376.90220459 257.80387207 377.61690918 257.12329102 378.35327148 C255.74981512 379.83933542 254.37849745 381.32739679 253.00927734 382.81738281 C250.00335595 386.08262428 246.96966371 389.32165183 243.9375 392.5625 C242.77840806 393.80446563 241.61955401 395.04665333 240.4609375 396.2890625 C239.88956055 396.90168945 239.31818359 397.51431641 238.72949219 398.14550781 C238.15875977 398.75749023 237.58802734 399.36947266 237 400 C229.21350458 408.34926866 221.41857228 416.69042011 213.60791016 425.01708984 C207.05944614 431.99974366 200.52898077 438.99913355 194 446 C186.21279889 454.35002535 178.41738196 462.69214252 170.60571289 471.01928711 C166.3971368 475.50665618 162.19601591 480.00088588 158 484.5 C152.54496678 490.34907625 147.07755028 496.18640516 141.60546875 502.01953125 C137.39698936 506.50683329 133.19593745 511.00097 129 515.5 C124.17451373 520.67405413 119.3405481 525.84003437 114.5 531 C107.32001424 538.65426685 100.15773818 546.32493235 93 554 C90.68773462 556.47938564 88.37525674 558.95857269 86.0625 561.4375 C85.48967285 562.05157715 84.9168457 562.6656543 84.32666016 563.29833984 C81.27993908 566.56286617 78.22891513 569.82325821 75.171875 573.078125 C74.52726318 573.76463135 73.88265137 574.4511377 73.21850586 575.15844727 C72.00903053 576.44600324 70.79897558 577.73301518 69.58813477 579.01928711 C69.01893311 579.62522705 68.44973145 580.23116699 67.86328125 580.85546875 C67.24187256 581.48211426 66.62046387 582.10875977 65.98022461 582.75439453 C63.85625192 585.03526406 63.85625192 585.03526406 62.06860352 588.13232422 C58.95130848 592.86641288 55.93655198 596.34591187 50.21774292 597.61972046 C41.92656172 598.51197127 33.62595441 598.09092185 25.3125 597.75 C22.76119313 597.68974439 20.20974973 597.63500256 17.65820312 597.5859375 C11.4358017 597.45433275 5.21853942 597.25411781 -1 597 C2.1345597 593.31349715 5.26405435 589.63816071 8.59375 586.125 C9.2242627 585.45774902 9.85477539 584.79049805 10.50439453 584.10302734 C11.16294434 583.40902832 11.82149414 582.7150293 12.5 582 C13.92474189 580.49243575 15.34921613 578.9846185 16.7734375 577.4765625 C17.48338867 576.72536133 18.19333984 575.97416016 18.92480469 575.20019531 C22.00339383 571.93616645 25.06567359 568.657076 28.125 565.375 C28.69412109 564.76462891 29.26324219 564.15425781 29.84960938 563.52539062 C30.99392126 562.29795052 32.13812752 561.07041194 33.28222656 559.84277344 C36.18659237 556.72706094 39.09343299 553.61365889 42 550.5 C43.16667826 549.25001082 44.33334493 548.00001083 45.5 546.75 C52.5 539.25 52.5 539.25 54.25048828 537.37451172 C55.41557375 536.12618263 56.58061291 534.87781033 57.74560547 533.62939453 C60.68608369 530.47847112 63.62739654 527.32833434 66.5703125 524.1796875 C72.04307116 518.32282296 77.50761523 512.45915794 82.9375 506.5625 C88.65609455 500.35363077 94.4296835 494.19713204 100.20703125 488.04296875 C103.83228799 484.18077923 107.44911567 480.31079621 111.0625 476.4375 C111.63597168 475.82277832 112.20944336 475.20805664 112.80029297 474.57470703 C113.9556132 473.33614391 115.11088674 472.09753723 116.26611328 470.85888672 C119.17663651 467.73853697 122.08838287 464.61932898 125 461.5 C126.16667246 460.25000541 127.33333913 459.00000541 128.5 457.75 C167 416.5 205.5 375.25 244 334 C242.36004633 328.7227132 239.03293967 324.72507233 235.75 320.375 C234.47381362 318.66417044 233.19777606 316.95322986 231.921875 315.2421875 C231.26896484 314.37045898 230.61605469 313.49873047 229.94335938 312.60058594 C226.94090851 308.58273335 223.97124817 304.54094803 221 300.5 C219.83609291 298.92045839 218.67202983 297.34103171 217.5078125 295.76171875 C215.14656803 292.55736102 212.78741454 289.35147783 210.4296875 286.14453125 C204.98363105 278.73980537 199.52542234 271.34575634 194 264 C187.86971479 255.8501105 181.82289741 247.6397739 175.78222656 239.42333984 C172.85769254 235.44677482 169.92864567 231.47353729 167 227.5 C165.83331112 225.91668304 164.66664447 224.33334969 163.5 222.75 C162.9225 221.96625 162.345 221.1825 161.75 220.375 C128.5 175.25 128.5 175.25 126.74951172 172.87426758 C125.58456151 171.29331017 124.41952266 169.71241808 123.25439453 168.1315918 C120.3107302 164.13744172 117.36868654 160.1421157 114.4296875 156.14453125 C108.98363105 148.73980537 103.52542234 141.34575634 98 134 C91.86971479 125.8501105 85.82289741 117.6397739 79.78222656 109.42333984 C76.85769254 105.44677482 73.92864567 101.47353729 71 97.5 C69.83331112 95.91668304 68.66664447 94.33334969 67.5 92.75 C66.9225 91.96625 66.345 91.1825 65.75 90.375 C54.66666667 75.33333333 43.58333333 60.29166667 32.5 45.25 C31.9220166 44.46560547 31.3440332 43.68121094 30.74853516 42.87304688 C29.58670685 41.29625671 28.4249227 39.71943401 27.26318359 38.14257812 C24.27285893 34.08386073 21.2816727 30.02578257 18.2890625 25.96875 C15.36619432 22.00591868 12.44559505 18.04142775 9.52734375 14.07519531 C8.55666512 12.75633848 7.58538025 11.43792745 6.61328125 10.12011719 C5.44821549 8.54010878 4.28644433 6.95767238 3.125 5.375 C2.20074219 4.11816406 2.20074219 4.11816406 1.2578125 2.8359375 C0 1 0 1 0 0 Z " fill="#FDFDFD" transform="translate(287,285)"/>
<path d="M0 0 C11.06504442 -0.48936665 22.1274693 -0.86103116 33.2011795 -1.08805561 C38.34555909 -1.19710641 43.48247692 -1.34454518 48.62255859 -1.58422852 C84.61515949 -3.21916787 84.61515949 -3.21916787 93.10546875 4.43408203 C96.73616753 8.68897198 99.32014138 13.22128669 101.65283203 18.28677368 C103.87597537 22.76423393 106.94575585 26.56566305 110 30.5 C111.14992703 32.05948969 112.29624455 33.62165318 113.4375 35.1875 C117.23213359 40.33735987 121.11208567 45.42038779 125 50.5 C130.65353395 57.88641792 136.21470194 65.33194466 141.7109375 72.8359375 C146.07277032 78.77671433 150.52054548 84.6475326 155 90.5 C160.65353395 97.88641792 166.21470194 105.33194466 171.7109375 112.8359375 C176.07277032 118.77671433 180.52054548 124.6475326 185 130.5 C190.65353395 137.88641792 196.21470194 145.33194466 201.7109375 152.8359375 C206.07277032 158.77671433 210.52054548 164.6475326 215 170.5 C220.65353395 177.88641792 226.21470194 185.33194466 231.7109375 192.8359375 C236.07277032 198.77671433 240.52054548 204.6475326 245 210.5 C250.65353395 217.88641792 256.21470194 225.33194466 261.7109375 232.8359375 C266.07277032 238.77671433 270.52054548 244.6475326 275 250.5 C280.65353395 257.88641792 286.21470194 265.33194466 291.7109375 272.8359375 C296.07277032 278.77671433 300.52054548 284.6475326 305 290.5 C310.65353395 297.88641792 316.21470194 305.33194466 321.7109375 312.8359375 C326.07277032 318.77671433 330.52054548 324.6475326 335 330.5 C340.65353395 337.88641792 346.21470194 345.33194466 351.7109375 352.8359375 C356.07277032 358.77671433 360.52054548 364.6475326 365 370.5 C370.65353395 377.88641792 376.21470194 385.33194466 381.7109375 392.8359375 C386.07277032 398.77671433 390.52054548 404.6475326 395 410.5 C400.65353395 417.88641792 406.21470194 425.33194466 411.7109375 432.8359375 C416.07277032 438.77671433 420.52054548 444.6475326 425 450.5 C430.65067561 457.88268346 436.21023936 465.32359573 441.70214844 472.82495117 C446.14481503 478.87780059 450.68401228 484.85230121 455.25 490.8125 C459.91154772 496.90338025 464.53522844 503.01293392 469 509.25 C469.62310059 510.11782104 469.62310059 510.11782104 470.25878906 511.00317383 C473 514.8709673 473 514.8709673 473 516 C461.50883156 516.44218723 450.01971503 516.77876301 438.52174187 516.98443127 C433.18085173 517.08320479 427.84581834 517.21685556 422.50830078 517.43334961 C385.08151603 518.91198893 385.08151603 518.91198893 377.29223633 512.05737305 C374.02662592 508.1700834 371.87203475 503.99226774 369.98181152 499.30001831 C368.65148773 496.18356571 366.74894722 493.77673112 364.58984375 491.18359375 C363.98011719 490.39017578 363.37039063 489.59675781 362.7421875 488.77929688 C362.14664062 488.00650391 361.55109375 487.23371094 360.9375 486.4375 C355.47620524 479.31246457 350.15281731 472.10803242 344.93115234 464.80615234 C340.74578604 458.97694778 336.42628789 453.25906013 332.0625 447.5625 C323.99635308 437.03281977 316.12688479 426.36757408 308.29101562 415.66601562 C300.8592088 405.52248909 293.32596657 395.46822068 285.68017578 385.48486328 C281.6326111 380.18553534 277.69239396 374.83252567 273.85961914 369.37670898 C270.10258642 364.06541608 266.14621107 358.91192156 262.1875 353.75 C257.19152737 347.23472973 252.27378549 340.67986262 247.5 334 C242.78616887 327.40519369 237.93383891 320.93177862 233 314.5 C228.06615518 308.06821368 223.21404065 301.59466151 218.5 295 C213.80207711 288.4302199 208.97404325 281.97410895 204.0625 275.5625 C195.99635308 265.03281977 188.12688479 254.36757408 180.29101562 243.66601562 C172.8592088 233.52248909 165.32596657 223.46822068 157.68017578 213.48486328 C153.6326111 208.18553534 149.69239396 202.83252567 145.85961914 197.37670898 C142.10258642 192.06541608 138.14621107 186.91192156 134.1875 181.75 C129.19152737 175.23472973 124.27378549 168.67986262 119.5 162 C114.78616887 155.40519369 109.93383891 148.93177862 105 142.5 C100.06615518 136.06821368 95.21404065 129.59466151 90.5 123 C85.80207711 116.4302199 80.97404325 109.97410895 76.0625 103.5625 C67.99635308 93.03281977 60.12688479 82.36757408 52.29101562 71.66601562 C45.5303134 62.43846652 38.70468633 53.27003968 31.75 44.1875 C26.57000054 37.42043687 21.50138895 30.60321309 16.59375 23.63671875 C12.64990299 18.06396082 8.5490831 12.60316536 4.46826172 7.13037109 C3.59838623 5.95788818 3.59838623 5.95788818 2.7109375 4.76171875 C2.18806152 4.06006592 1.66518555 3.35841309 1.12646484 2.63549805 C0 1 0 1 0 0 Z " fill="#000000" transform="translate(365,327)"/>
</svg>
